<?xml version="1.0" encoding="UTF-8"?>
<svg version="1.1" xmlns="http://www.w3.org/2000/svg" width="2000" height="980">
<path d="M0 0 C97.32704476 -1.70083368 194.18226292 24.28090157 324.89648438 121.06201172 C328.85648438 125.02201172 332.81648437 128.98201172 336.89648438 133.06201172 C337.22648438 93.46201172 337.55648437 53.86201172 337.89648438 13.06201172 C389.37648438 13.06201172 440.85648438 13.06201172 493.89648438 13.06201172 C493.89648438 320.62201172 493.89648438 628.18201172 493.89648438 945.06201172 C442.41648437 945.06201172 390.93648437 945.06201172 337.89648438 945.06201172 C337.56648437 905.46201172 337.23648438 865.86201172 336.89648438 825.06201172 C334.25648438 827.70201172 331.61648438 830.34201172 328.89648438 833.06201172 C327.05188849 834.71243961 325.20468377 836.36044862 323.32617188 837.97216797 C321.42081434 839.61102051 319.53417543 841.2654016 317.65429688 842.93310547 C308.39977203 851.1065996 298.80519505 858.69961182 288.89648438 866.06201172 C288.18121582 866.59826172 287.46594727 867.13451172 286.72900391 867.68701172 C270.11827901 880.11238651 252.55873669 890.95979306 234.29101562 900.77441406 C232.63446068 901.66518392 230.98100317 902.5617293 229.33007812 903.46289062 C135.92065447 954.36558783 25.01152151 969.31499903 -79.10351562 949.06201172 C-80.24191895 948.84174316 -81.38032227 948.62147461 -82.55322266 948.39453125 C-154.56632812 934.14506348 -224.71409764 899.78688173 -280.18554688 851.57763672 C-283.00368896 849.1480738 -285.88263929 846.81972268 -288.79101562 844.49951172 C-293.41893258 840.73932919 -297.59581784 836.67244363 -301.75976562 832.40966797 C-304.47158895 829.69332494 -307.32725975 827.2027999 -310.23632812 824.70263672 C-315.24013083 820.30598999 -319.6897049 815.45920868 -324.02929688 810.41748047 C-326.11760857 808.04600786 -328.25812627 805.73360298 -330.41503906 803.42480469 C-358.24784824 773.60145419 -380.87871652 738.91549849 -400.10351562 703.06201172 C-400.62155762 702.09602051 -401.13959961 701.1300293 -401.67333984 700.13476562 C-437.57482683 632.44898755 -453.66076845 555.39217436 -453.41601562 479.12451172 C-453.41419281 477.93267273 -453.41237 476.74083374 -453.41049194 475.51287842 C-453.35939939 455.55150027 -452.61093897 435.86878271 -450.10351562 416.06201172 C-449.97623077 415.04089294 -449.97623077 415.04089294 -449.84637451 413.99914551 C-438.37560584 322.69640773 -400.36273438 234.95519606 -339.90039062 165.29833984 C-338.06303821 163.1810473 -336.24715797 161.04830418 -334.44921875 158.89746094 C-327.686534 150.83998412 -320.57940354 143.25129254 -313.10205078 135.85473633 C-311.33490853 134.10609948 -309.57614947 132.34934181 -307.81835938 130.59130859 C-302.0806688 124.87143194 -296.29051196 119.29928102 -290.10351562 114.06201172 C-289.05475667 113.13706014 -288.00781506 112.210043 -286.96289062 111.28076172 C-277.11184232 102.62535933 -266.69176303 94.78874111 -256.10351562 87.06201172 C-255.36166016 86.52012207 -254.61980469 85.97823242 -253.85546875 85.41992188 C-179.90312708 31.67470365 -91.38551255 1.82598491 0 0 Z M-166.10351562 225.06201172 C-167.09609375 225.87025391 -168.08867187 226.67849609 -169.11132812 227.51123047 C-176.95342249 233.96198551 -184.22170122 240.96676346 -191.41601562 248.12451172 C-192.33487549 249.03418701 -193.25373535 249.9438623 -194.20043945 250.88110352 C-200.26002775 256.96804887 -205.76538614 263.33815725 -211.10351562 270.06201172 C-212.00878248 271.16155342 -212.9159109 272.2595696 -213.82617188 273.35498047 C-270.42977911 343.377139 -292.06163165 432.08308354 -282.71289062 520.76757812 C-280.73874578 537.15252333 -277.35828503 553.12780464 -273.10351562 569.06201172 C-272.87970215 569.91778809 -272.65588867 570.77356445 -272.42529297 571.65527344 C-255.39541496 635.87025034 -212.93682053 697.66450678 -159.90136719 737.69677734 C-158.05616529 739.09796814 -156.23164363 740.5232731 -154.40820312 741.95263672 C-101.14697953 783.31753795 -35.19764821 804.26801214 31.89648438 804.31201172 C33.28843018 804.31302383 33.28843018 804.31302383 34.70849609 804.3140564 C50.61259082 804.29577229 66.15595703 803.51445395 81.89648438 801.06201172 C82.97172363 800.89572266 84.04696289 800.72943359 85.15478516 800.55810547 C140.98723045 791.57300028 193.47677488 766.35273785 235.89648438 729.06201172 C236.60675781 728.45099609 237.31703125 727.83998047 238.04882812 727.21044922 C249.33526965 717.47041175 260.19761058 707.39638188 269.89648438 696.06201172 C271.09917969 694.69302734 271.09917969 694.69302734 272.32617188 693.29638672 C330.09884597 627.00512542 355.87657405 540.32896822 350.14648438 453.24951172 C348.00404728 424.47429731 342.3245144 396.34019533 332.89648438 369.06201172 C332.5491626 368.05315918 332.5491626 368.05315918 332.19482422 367.02392578 C319.71885617 331.27530979 300.28621393 297.97434013 275.89648438 269.06201172 C275.09726562 268.07716797 274.29804687 267.09232422 273.47460938 266.07763672 C266.87185111 258.03869567 259.66613801 250.61735139 252.33398438 243.24951172 C251.85129089 242.76164185 251.36859741 242.27377197 250.87127686 241.77111816 C244.22932203 235.07306908 237.31573078 228.89258166 229.89648438 223.06201172 C229.16550537 222.48233643 228.43452637 221.90266113 227.68139648 221.30541992 C150.7936413 160.76741241 52.70469274 139.49973287 -166.10351562 225.06201172 Z " fill="#373BB0" transform="translate(472.103515625,8.93798828125)"/>
<path d="M0 0 C1.06475555 0.00133942 2.12951111 0.00267883 3.22653198 0.00405884 C4.02978912 0.00578094 4.83304626 0.00750305 5.66064453 0.00927734 C15.84490304 40.00542147 25.94573436 80.02225618 35.96853638 120.05917358 C36.78782292 123.33047536 37.60801899 126.60154788 38.4284668 129.87255859 C39.72678209 135.04928084 41.02270199 140.22659682 42.31672287 145.40439415 C42.79837067 147.33014221 43.28080606 149.25569346 43.76405716 151.18103981 C44.42596552 153.8189594 45.08495476 156.45759094 45.74316406 159.09643555 C45.93934074 159.87552025 46.13551743 160.65460495 46.33763885 161.45729828 C47.66064453 166.78089011 47.66064453 166.78089011 47.66064453 169.00927734 C42.89509704 168.07179259 38.13744879 167.12239842 33.39892578 166.05615234 C32.62073486 165.88438477 31.84254395 165.71261719 31.04077148 165.53564453 C29.52330347 165.20005513 28.00731232 164.85766482 26.4934082 164.50634766 C10.2484753 160.94954764 -6.15827005 160.63589322 -22.71435547 160.69677734 C-23.77038971 160.6989325 -24.82642395 160.70108765 -25.91445923 160.70330811 C-75.01443988 160.8637792 -122.79917797 170.8140333 -166.33935547 194.00927734 C-166.98001953 194.34362793 -167.62068359 194.67797852 -168.28076172 195.02246094 C-184.74498644 203.65144949 -199.43566617 214.72799955 -213.33935547 227.00927734 C-214.19658203 227.75564453 -215.05380859 228.50201172 -215.93701172 229.27099609 C-226.29069609 238.41046074 -235.9113925 248.04855867 -244.33935547 259.00927734 C-244.95496338 259.80229248 -244.95496338 259.80229248 -245.58300781 260.61132812 C-291.69631088 320.34547155 -308.46207153 396.23920989 -308.49757385 470.49131775 C-308.50214847 472.53366633 -308.50714978 474.57601398 -308.51253742 476.61836058 C-308.52602556 482.19404261 -308.53350961 487.7697186 -308.53996408 493.34541261 C-308.54800935 499.3717973 -308.56169275 505.39816958 -308.57467651 511.42454529 C-308.59638102 521.85356667 -308.61458144 532.28259032 -308.63028145 542.71162224 C-308.64675266 553.64308078 -308.66524792 564.57453285 -308.68641472 575.50598335 C-308.68773233 576.18703487 -308.68904993 576.86808639 -308.69040747 577.56977584 C-308.69711005 581.02884361 -308.70384849 584.48791132 -308.71060073 587.94697899 C-308.75829555 612.41329546 -308.80150004 636.87961799 -308.84204102 661.34594727 C-308.88142317 685.10669393 -308.92285345 708.86743559 -308.96704102 732.62817383 C-308.96840355 733.36127644 -308.96976608 734.09437906 -308.97116989 734.84969691 C-308.9848559 742.21217544 -308.99858338 749.5746539 -309.01234123 756.93713231 C-309.04036373 771.93380085 -309.06810953 786.93046991 -309.09568787 801.92713928 C-309.09695607 802.61658048 -309.09822426 803.30602168 -309.09953089 804.01635504 C-309.18410996 850.01398795 -309.26161663 896.01163225 -309.33935547 942.00927734 C-365.10935547 942.00927734 -420.87935547 942.00927734 -478.33935547 942.00927734 C-478.33935547 634.44927734 -478.33935547 326.88927734 -478.33935547 10.00927734 C-426.85935547 10.00927734 -375.37935547 10.00927734 -322.33935547 10.00927734 C-322.00935547 65.11927734 -321.67935547 120.22927734 -321.33935547 177.00927734 C-316.05935547 169.08927734 -310.77935547 161.16927734 -305.33935547 153.00927734 C-302.05465496 148.59192148 -298.79900162 144.27292577 -295.33935547 140.00927734 C-294.60716797 139.08630859 -293.87498047 138.16333984 -293.12060547 137.21240234 C-288.27714139 131.17512669 -283.15686787 125.45108303 -277.89404297 119.78271484 C-275.82684306 117.53850699 -273.81900467 115.26741876 -271.83935547 112.94677734 C-264.95986273 105.02793678 -257.34159855 97.77819981 -249.33935547 91.00927734 C-248.45505859 90.23583984 -247.57076172 89.46240234 -246.65966797 88.66552734 C-177.97258977 28.94252338 -90.55652418 -0.1484149 0 0 Z " fill="#373BAF" transform="translate(1929.33935546875,11.99072265625)"/>
</svg>
